<svg width="33" height="33" viewBox="0 0 33 33" fill="none" xmlns="http://www.w3.org/2000/svg">
<path d="M16.2191 3.22998C15.4319 3.22924 14.6715 3.51603 14.0808 4.03646C13.4902 4.55689 13.1099 5.27511 13.0116 6.05616C12.9132 6.8372 13.1035 7.62728 13.5466 8.27792C13.9898 8.92855 14.6553 9.39494 15.4181 9.58943C15.4139 9.62264 15.4117 9.65608 15.4116 9.68955V15.3417C15.4116 15.5558 15.4967 15.7612 15.6481 15.9126C15.7995 16.0641 16.0049 16.1491 16.2191 16.1491C16.4332 16.1491 16.6386 16.0641 16.79 15.9126C16.9414 15.7612 17.0265 15.5558 17.0265 15.3417V9.68955C17.0264 9.65608 17.0243 9.62264 17.0201 9.58943C17.7829 9.39494 18.4484 8.92855 18.8915 8.27792C19.3347 7.62728 19.525 6.8372 19.4266 6.05616C19.3282 5.27511 18.948 4.55689 18.3573 4.03646C17.7667 3.51603 17.0063 3.22924 16.2191 3.22998ZM14.6042 6.45977C14.6042 6.03147 14.7743 5.62072 15.0772 5.31787C15.38 5.01501 15.7908 4.84487 16.2191 4.84487C16.6474 4.84487 17.0581 5.01501 17.361 5.31787C17.6638 5.62072 17.834 6.03147 17.834 6.45977C17.834 6.88806 17.6638 7.29882 17.361 7.60167C17.0581 7.90452 16.6474 8.07466 16.2191 8.07466C15.7908 8.07466 15.38 7.90452 15.0772 7.60167C14.7743 7.29882 14.6042 6.88806 14.6042 6.45977ZM6.52971 6.45977C6.10142 6.45977 5.69066 6.62991 5.38781 6.93276C5.08496 7.23561 4.91482 7.64636 4.91482 8.07466V25.8385C4.91482 26.2668 5.08496 26.6775 5.38781 26.9804C5.69066 27.2832 6.10142 27.4534 6.52971 27.4534C6.95801 27.4534 7.36876 27.2832 7.67161 26.9804C7.97447 26.6775 8.14461 26.2668 8.14461 25.8385V19.3789C8.14461 19.1648 8.22968 18.9594 8.3811 18.808C8.53253 18.6565 8.7379 18.5715 8.95205 18.5715H13.7967C14.0109 18.5715 14.2163 18.6565 14.3677 18.808C14.5191 18.9594 14.6042 19.1648 14.6042 19.3789V25.8385C14.6042 26.2668 14.7743 26.6775 15.0772 26.9804C15.38 27.2832 15.7908 27.4534 16.2191 27.4534C16.6474 27.4534 17.0581 27.2832 17.361 26.9804C17.6638 26.6775 17.834 26.2668 17.834 25.8385V20.1864C17.834 19.9722 17.919 19.7668 18.0705 19.6154C18.2219 19.464 18.4273 19.3789 18.6414 19.3789H26.7159C26.93 19.3789 27.1354 19.2938 27.2868 19.1424C27.4383 18.991 27.5233 18.7856 27.5233 18.5715V8.07466C27.5233 7.64636 27.3532 7.23561 27.0503 6.93276C26.7475 6.62991 26.3367 6.45977 25.9084 6.45977C25.4801 6.45977 25.0694 6.62991 24.7665 6.93276C24.4637 7.23561 24.2935 7.64636 24.2935 8.07466V14.5342C24.2935 14.7484 24.2085 14.9538 24.057 15.1052C23.9056 15.2566 23.7002 15.3417 23.4861 15.3417H19.4489C19.2347 15.3417 19.0293 15.2566 18.8779 15.1052C18.7265 14.9538 18.6414 14.7484 18.6414 14.5342C18.6414 14.3201 18.7265 14.1147 18.8779 13.9633C19.0293 13.8119 19.2347 13.7268 19.4489 13.7268H22.6786V8.07466C22.6786 7.21807 23.0189 6.39656 23.6246 5.79086C24.2303 5.18515 25.0518 4.84487 25.9084 4.84487C26.765 4.84487 27.5865 5.18515 28.1922 5.79086C28.7979 6.39656 29.1382 7.21807 29.1382 8.07466V18.5715C29.1382 19.2139 28.883 19.83 28.4287 20.2843C27.9744 20.7386 27.3583 20.9938 26.7159 20.9938H19.4489V25.8385C19.4489 26.6951 19.1086 27.5166 18.5029 28.1223C17.8972 28.728 17.0757 29.0683 16.2191 29.0683C15.3625 29.0683 14.541 28.728 13.9353 28.1223C13.3296 27.5166 12.9893 26.6951 12.9893 25.8385V20.1864H9.7595V25.8385C9.7595 26.6951 9.41922 27.5166 8.81352 28.1223C8.20781 28.728 7.38631 29.0683 6.52971 29.0683C5.67312 29.0683 4.85161 28.728 4.24591 28.1223C3.64021 27.5166 3.29993 26.6951 3.29993 25.8385V8.07466C3.29993 7.21807 3.64021 6.39656 4.24591 5.79086C4.85161 5.18515 5.67312 4.84487 6.52971 4.84487C7.38631 4.84487 8.20781 5.18515 8.81352 5.79086C9.41922 6.39656 9.7595 7.21807 9.7595 8.07466V13.7268H12.9893C13.2034 13.7268 13.4088 13.8119 13.5602 13.9633C13.7117 14.1147 13.7967 14.3201 13.7967 14.5342C13.7967 14.7484 13.7117 14.9538 13.5602 15.1052C13.4088 15.2566 13.2034 15.3417 12.9893 15.3417H8.95205C8.7379 15.3417 8.53253 15.2566 8.3811 15.1052C8.22968 14.9538 8.14461 14.7484 8.14461 14.5342V8.07466C8.14461 7.64636 7.97447 7.23561 7.67161 6.93276C7.36876 6.62991 6.95801 6.45977 6.52971 6.45977Z" fill="#646464"/>
</svg>
