<svg width="37" height="32" viewBox="0 0 37 32" fill="none" xmlns="http://www.w3.org/2000/svg">
<path d="M5.97266 6.94391C5.97266 6.13014 6.34788 5.34971 7.01578 4.77429C7.68368 4.19888 8.58954 3.87561 9.5341 3.87561C10.4786 3.87561 11.3845 4.19888 12.0524 4.77429C12.7203 5.34971 13.0955 6.13014 13.0955 6.94391V8.47806H15.918C16.1015 8.02856 16.4425 7.63923 16.8938 7.36382C17.3452 7.0884 17.8846 6.94049 18.4377 6.94049C18.9908 6.94049 19.5302 7.0884 19.9816 7.36382C20.4329 7.63923 20.7739 8.02856 20.9574 8.47806H23.7799V6.94391C23.7799 6.13014 24.1551 5.34971 24.823 4.77429C25.4909 4.19888 26.3967 3.87561 27.3413 3.87561C28.2858 3.87561 29.1917 4.19888 29.8596 4.77429C30.5275 5.34971 30.9027 6.13014 30.9027 6.94391V11.5464C30.9027 12.3601 30.5275 13.1405 29.8596 13.716C29.1917 14.2914 28.2858 14.6147 27.3413 14.6147C26.3967 14.6147 25.4909 14.2914 24.823 13.716C24.1551 13.1405 23.7799 12.3601 23.7799 11.5464V10.0122H20.9574C20.8238 10.3357 20.6082 10.6295 20.3264 10.8723C20.0446 11.1151 19.7035 11.3008 19.3281 11.416V20.8816C20.0866 21.1133 20.6885 21.6318 20.9574 22.2854H23.7799V20.7512C23.7799 19.9375 24.1551 19.157 24.823 18.5816C25.4909 18.0062 26.3967 17.6829 27.3413 17.6829C28.2858 17.6829 29.1917 18.0062 29.8596 18.5816C30.5275 19.157 30.9027 19.9375 30.9027 20.7512V25.3537C30.9027 26.1675 30.5275 26.9479 29.8596 27.5233C29.1917 28.0987 28.2858 28.422 27.3413 28.422C26.3967 28.422 25.4909 28.0987 24.823 27.5233C24.1551 26.9479 23.7799 26.1675 23.7799 25.3537V23.8195H20.9574C20.7739 24.269 20.4329 24.6584 19.9816 24.9338C19.5302 25.2092 18.9908 25.3571 18.4377 25.3571C17.8846 25.3571 17.3452 25.2092 16.8938 24.9338C16.4425 24.6584 16.1015 24.269 15.918 23.8195H13.0955V25.3537C13.0955 26.1675 12.7203 26.9479 12.0524 27.5233C11.3845 28.0987 10.4786 28.422 9.5341 28.422C8.58954 28.422 7.68368 28.0987 7.01578 27.5233C6.34788 26.9479 5.97266 26.1675 5.97266 25.3537V20.7512C5.97266 19.9375 6.34788 19.157 7.01578 18.5816C7.68368 18.0062 8.58954 17.6829 9.5341 17.6829C10.4786 17.6829 11.3845 18.0062 12.0524 18.5816C12.7203 19.157 13.0955 19.9375 13.0955 20.7512V22.2854H15.918C16.1869 21.6318 16.7887 21.1133 17.5473 20.8816V11.416C17.1716 11.3012 16.8303 11.1156 16.5485 10.8728C16.2666 10.6299 16.0512 10.3359 15.918 10.0122H13.0955V11.5464C13.0955 12.3601 12.7203 13.1405 12.0524 13.716C11.3845 14.2914 10.4786 14.6147 9.5341 14.6147C8.58954 14.6147 7.68368 14.2914 7.01578 13.716C6.34788 13.1405 5.97266 12.3601 5.97266 11.5464V6.94391ZM9.5341 5.40976C9.06182 5.40976 8.60889 5.57139 8.27494 5.8591C7.94099 6.14681 7.75338 6.53703 7.75338 6.94391V11.5464C7.75338 11.9532 7.94099 12.3435 8.27494 12.6312C8.60889 12.9189 9.06182 13.0805 9.5341 13.0805C10.0064 13.0805 10.4593 12.9189 10.7933 12.6312C11.1272 12.3435 11.3148 11.9532 11.3148 11.5464V6.94391C11.3148 6.53703 11.1272 6.14681 10.7933 5.8591C10.4593 5.57139 10.0064 5.40976 9.5341 5.40976ZM27.3413 5.40976C26.869 5.40976 26.4161 5.57139 26.0821 5.8591C25.7482 6.14681 25.5606 6.53703 25.5606 6.94391V11.5464C25.5606 11.9532 25.7482 12.3435 26.0821 12.6312C26.4161 12.9189 26.869 13.0805 27.3413 13.0805C27.8136 13.0805 28.2665 12.9189 28.6005 12.6312C28.9344 12.3435 29.122 11.9532 29.122 11.5464V6.94391C29.122 6.53703 28.9344 6.14681 28.6005 5.8591C28.2665 5.57139 27.8136 5.40976 27.3413 5.40976ZM9.5341 19.2171C9.06182 19.2171 8.60889 19.3787 8.27494 19.6664C7.94099 19.9541 7.75338 20.3444 7.75338 20.7512V25.3537C7.75338 25.7606 7.94099 26.1508 8.27494 26.4385C8.60889 26.7262 9.06182 26.8878 9.5341 26.8878C10.0064 26.8878 10.4593 26.7262 10.7933 26.4385C11.1272 26.1508 11.3148 25.7606 11.3148 25.3537V20.7512C11.3148 20.3444 11.1272 19.9541 10.7933 19.6664C10.4593 19.3787 10.0064 19.2171 9.5341 19.2171ZM25.5606 20.7512V25.3537C25.5606 25.7606 25.7482 26.1508 26.0821 26.4385C26.4161 26.7262 26.869 26.8878 27.3413 26.8878C27.8136 26.8878 28.2665 26.7262 28.6005 26.4385C28.9344 26.1508 29.122 25.7606 29.122 25.3537V20.7512C29.122 20.3444 28.9344 19.9541 28.6005 19.6664C28.2665 19.3787 27.8136 19.2171 27.3413 19.2171C26.869 19.2171 26.4161 19.3787 26.0821 19.6664C25.7482 19.9541 25.5606 20.3444 25.5606 20.7512Z" fill="#646464"/>
</svg>
