<svg width="33" height="33" viewBox="0 0 33 33" fill="none" xmlns="http://www.w3.org/2000/svg">
<path d="M12.9185 4.84468C12.9185 4.63053 12.8335 4.42515 12.682 4.27373C12.5306 4.1223 12.3252 4.03723 12.1111 4.03723C11.8969 4.03723 11.6916 4.1223 11.5401 4.27373C11.3887 4.42515 11.3037 4.63053 11.3037 4.84468V6.45957H9.68876C8.83217 6.45957 8.01066 6.79985 7.40496 7.40555C6.79925 8.01126 6.45897 8.83277 6.45897 9.68936V14.534H4.84408V10.4968C4.84408 10.2827 4.75901 10.0773 4.60758 9.92585C4.45616 9.77443 4.25078 9.68936 4.03663 9.68936C3.82249 9.68936 3.61711 9.77443 3.46568 9.92585C3.31426 10.0773 3.22919 10.2827 3.22919 10.4968V20.1862C3.22919 20.4003 3.31426 20.6057 3.46568 20.7571C3.61711 20.9085 3.82249 20.9936 4.03663 20.9936C4.25078 20.9936 4.45616 20.9085 4.60758 20.7571C4.75901 20.6057 4.84408 20.4003 4.84408 20.1862V16.1489H6.45897V20.7982C6.45916 21.6547 6.79956 22.4761 7.4053 23.0817L11.3037 26.98C11.6064 27.2829 12.0171 27.4531 12.4454 27.4532H21.3015C21.6013 27.453 21.8951 27.3694 22.1501 27.2117C22.4051 27.0539 22.6111 26.8284 22.7452 26.5601L23.916 24.2234H25.8377C26.6943 24.2234 27.5158 23.8831 28.1215 23.2774C28.7272 22.6717 29.0675 21.8502 29.0675 20.9936V12.9191C29.0675 12.0626 28.7272 11.241 28.1215 10.6353C27.5158 10.0296 26.6943 9.68936 25.8377 9.68936H23.9144L22.7452 7.35261C22.6111 7.0844 22.4051 6.85881 22.1501 6.70108C21.8951 6.54336 21.6013 6.45973 21.3015 6.45957H17.7632V4.84468C17.7632 4.63053 17.6782 4.42515 17.5267 4.27373C17.3753 4.1223 17.1699 4.03723 16.9558 4.03723C16.7416 4.03723 16.5363 4.1223 16.3848 4.27373C16.2334 4.42515 16.1483 4.63053 16.1483 4.84468V6.45957H12.9185V4.84468ZM9.68876 8.07446H21.3015L22.4706 10.4112C22.6047 10.6794 22.8107 10.905 23.0657 11.0627C23.3207 11.2205 23.6145 11.3041 23.9144 11.3043H25.8377C26.266 11.3043 26.6767 11.4744 26.9796 11.7772C27.2824 12.0801 27.4526 12.4908 27.4526 12.9191V20.9936C27.4526 21.4219 27.2824 21.8327 26.9796 22.1355C26.6767 22.4384 26.266 22.6085 25.8377 22.6085H23.9144C23.6145 22.6087 23.3207 22.6923 23.0657 22.85C22.8107 23.0077 22.6047 23.2333 22.4706 23.5015L21.2998 25.8383H12.4454L8.54703 21.9399C8.24416 21.6372 8.07396 21.2265 8.07387 20.7982V9.68936C8.07387 9.26106 8.24401 8.85031 8.54686 8.54746C8.84971 8.2446 9.26046 8.07446 9.68876 8.07446ZM12.1111 11.3043C12.3252 11.3043 12.5306 11.3893 12.682 11.5407C12.8335 11.6922 12.9185 11.8975 12.9185 12.1117V16.1489C12.9185 16.5772 13.0887 16.988 13.3915 17.2908C13.6944 17.5937 14.1051 17.7638 14.5334 17.7638H16.1483V12.1117C16.1483 11.8975 16.2334 11.6922 16.3848 11.5407C16.5363 11.3893 16.7416 11.3043 16.9558 11.3043C17.1699 11.3043 17.3753 11.3893 17.5267 11.5407C17.6782 11.6922 17.7632 11.8975 17.7632 12.1117V17.7638H23.4153C23.6295 17.7638 23.8349 17.8489 23.9863 18.0003C24.1377 18.1517 24.2228 18.3571 24.2228 18.5713C24.2228 18.7854 24.1377 18.9908 23.9863 19.1422C23.8349 19.2936 23.6295 19.3787 23.4153 19.3787H14.5334C13.6768 19.3787 12.8553 19.0384 12.2496 18.4327C11.6439 17.827 11.3037 17.0055 11.3037 16.1489V12.1117C11.3037 11.8975 11.3887 11.6922 11.5401 11.5407C11.6916 11.3893 11.8969 11.3043 12.1111 11.3043Z" fill="#646464"/>
</svg>
